<svg width="535" height="188" viewBox="0 0 535 188" fill="none" xmlns="http://www.w3.org/2000/svg">
<g filter="url(#filter0_d)">
<path fill-rule="evenodd" clip-rule="evenodd" d="M3.74535 2.02876L0 173.495C28.9225 176.047 87.017 180.385 88.0158 177.323C89.2643 173.495 94.8823 71.687 88.0158 64.7978C82.5226 59.2863 53.2673 57.9085 39.3262 57.9085C41.8231 40.8129 46.0679 5.70304 43.0716 2.02876C40.0753 -1.64552 15.6056 0.49781 3.74535 2.02876ZM42.8197 106.111C44.8774 98.588 49.5627 83.9514 51.842 85.5929C53.3156 86.6541 53.646 92.1064 53.95 97.1236C54.2337 101.807 54.4946 106.111 55.6409 106.111C58.0151 106.111 67.5123 110.215 67.9871 115.003C68.2481 117.634 64.4922 120.059 61.0563 122.278C58.2411 124.095 55.6409 125.774 55.6409 127.314C55.6409 128.152 55.8692 129.936 56.1579 132.192C57.0469 139.137 58.5083 150.555 55.6409 152.62C53.5815 154.103 50.6848 147.345 48.0856 141.282C45.8901 136.16 43.9069 131.533 42.8197 132.786C40.4454 135.521 26.6746 151.252 25.7249 146.465C25.198 143.809 28.1782 136.523 30.8556 129.977C33.0046 124.723 34.9586 119.945 34.7472 118.423C34.5752 117.184 32.8472 114.153 30.8927 110.725C27.4487 104.684 23.3014 97.4088 25.7249 96.5361C29.5237 95.1682 38.546 100.64 42.8197 106.111Z" fill="#858D7A"/>
<path fill-rule="evenodd" clip-rule="evenodd" d="M3.74535 2.02876L0 173.495C28.9225 176.047 87.017 180.385 88.0158 177.323C89.2643 173.495 94.8823 71.687 88.0158 64.7978C82.5226 59.2863 53.2673 57.9085 39.3262 57.9085C41.8231 40.8129 46.0679 5.70304 43.0716 2.02876C40.0753 -1.64552 15.6056 0.49781 3.74535 2.02876ZM42.8197 106.111C44.8774 98.588 49.5627 83.9514 51.842 85.5929C53.3156 86.6541 53.646 92.1064 53.95 97.1236C54.2337 101.807 54.4946 106.111 55.6409 106.111C58.0151 106.111 67.5123 110.215 67.9871 115.003C68.2481 117.634 64.4922 120.059 61.0563 122.278C58.2411 124.095 55.6409 125.774 55.6409 127.314C55.6409 128.152 55.8692 129.936 56.1579 132.192C57.0469 139.137 58.5083 150.555 55.6409 152.62C53.5815 154.103 50.6848 147.345 48.0856 141.282C45.8901 136.16 43.9069 131.533 42.8197 132.786C40.4454 135.521 26.6746 151.252 25.7249 146.465C25.198 143.809 28.1782 136.523 30.8556 129.977C33.0046 124.723 34.9586 119.945 34.7472 118.423C34.5752 117.184 32.8472 114.153 30.8927 110.725C27.4487 104.684 23.3014 97.4088 25.7249 96.5361C29.5237 95.1682 38.546 100.64 42.8197 106.111Z" fill="url(#paint0_linear)"/>
<path d="M99.2544 173.178C97.4253 171.234 106.197 61.012 102.159 61.02C113.591 61.02 136.217 60.6975 137.741 62.6411C139.646 65.0704 130.501 170.749 128.214 173.178C125.928 175.607 101.541 175.607 99.2544 173.178Z" fill="#858D7A"/>
<path d="M99.2544 173.178C97.4253 171.234 106.197 61.012 102.159 61.02C113.591 61.02 136.217 60.6975 137.741 62.6411C139.646 65.0704 130.501 170.749 128.214 173.178C125.928 175.607 101.541 175.607 99.2544 173.178Z" fill="url(#paint1_linear)"/>
<path d="M116.556 8.14371C112.928 9.95178 110.589 17.052 107.263 22.7775C101.72 23.3802 92.1847 23.6816 90.2495 27.2977C88.3143 30.9138 98.0911 37.5434 103.937 38.1461C100.913 44.0725 97.325 51.8272 101.437 53.5147C106.578 55.6241 114.676 41.1374 116.556 43.8717C119.963 48.8252 128.349 55.9254 130.768 53.5147C133.187 51.1039 128.349 39.9542 128.349 38.1461C128.349 36.338 138.71 36.1688 139.92 30.1419C141.129 24.115 128.349 23.3802 125.627 22.7775C122.906 22.1748 120.185 6.33564 116.556 8.14371Z" fill="#858D7A"/>
<path d="M116.556 8.14371C112.928 9.95178 110.589 17.052 107.263 22.7775C101.72 23.3802 92.1847 23.6816 90.2495 27.2977C88.3143 30.9138 98.0911 37.5434 103.937 38.1461C100.913 44.0725 97.325 51.8272 101.437 53.5147C106.578 55.6241 114.676 41.1374 116.556 43.8717C119.963 48.8252 128.349 55.9254 130.768 53.5147C133.187 51.1039 128.349 39.9542 128.349 38.1461C128.349 36.338 138.71 36.1688 139.92 30.1419C141.129 24.115 128.349 23.3802 125.627 22.7775C122.906 22.1748 120.185 6.33564 116.556 8.14371Z" fill="url(#paint2_linear)"/>
<path d="M340.062 8.19122C337.181 10.2338 336.941 13.2976 334.3 19.7656C329.899 20.4465 320.712 22.8294 319.176 26.9145C317.64 30.9996 326.538 33.3825 331.179 34.0634C328.779 40.7584 324.794 54.6249 328.058 56.5313C332.14 58.9143 340.062 41.8931 340.062 45.6378C340.062 49.3824 349.424 59.2547 351.345 56.5313C353.265 53.8079 349.424 41.2123 349.424 39.1697C349.424 37.1272 359.987 33.7229 360.947 26.9145C361.908 20.106 349.424 22.489 347.264 21.8081C345.103 21.1273 342.943 6.14869 340.062 8.19122Z" fill="#858D7A"/>
<path d="M340.062 8.19122C337.181 10.2338 336.941 13.2976 334.3 19.7656C329.899 20.4465 320.712 22.8294 319.176 26.9145C317.64 30.9996 326.538 33.3825 331.179 34.0634C328.779 40.7584 324.794 54.6249 328.058 56.5313C332.14 58.9143 340.062 41.8931 340.062 45.6378C340.062 49.3824 349.424 59.2547 351.345 56.5313C353.265 53.8079 349.424 41.2123 349.424 39.1697C349.424 37.1272 359.987 33.7229 360.947 26.9145C361.908 20.106 349.424 22.489 347.264 21.8081C345.103 21.1273 342.943 6.14869 340.062 8.19122Z" fill="url(#paint3_linear)"/>
<path d="M147.201 90C140.801 86 149.868 55.6667 155.201 41C157.397 34.6 168.415 43.6667 170.5 49C170.5 37 164.201 11.2 164.201 4.00004C164.201 -4.99996 198.5 4 204.5 4C210.5 4 196.5 37 196.5 45C196.5 53 210.201 49 217.201 49C224.201 49 215.201 101 210.201 109C206.201 115.4 195.868 106.333 191.201 101C193.868 126.667 197.601 178 191.201 178C183.201 178 155.201 174 155.201 169C155.201 165 161.201 118.667 164.201 96C161.201 95.6667 153.601 94 147.201 90Z" fill="#858D7A"/>
<path d="M147.201 90C140.801 86 149.868 55.6667 155.201 41C157.397 34.6 168.415 43.6667 170.5 49C170.5 37 164.201 11.2 164.201 4.00004C164.201 -4.99996 198.5 4 204.5 4C210.5 4 196.5 37 196.5 45C196.5 53 210.201 49 217.201 49C224.201 49 215.201 101 210.201 109C206.201 115.4 195.868 106.333 191.201 101C193.868 126.667 197.601 178 191.201 178C183.201 178 155.201 174 155.201 169C155.201 165 161.201 118.667 164.201 96C161.201 95.6667 153.601 94 147.201 90Z" fill="url(#paint4_linear)"/>
<path d="M231.275 170.9C227.154 165.287 229.558 76.3373 231.275 32.5642C239.37 32.5642 256.737 33.5667 261.446 37.5764C266.156 41.5861 258.634 75.3592 254.709 96.7445C257.407 85.3836 264.537 72.6617 268.069 72.6617C271.601 72.6617 276.409 85.3836 278.371 96.7445C282.051 76 276.016 38.9798 278.371 32.5642C281.315 24.5447 303.391 32.5642 310.75 32.5642C316.636 32.5642 313.202 124.788 310.75 170.9C305.925 176 287.937 170.9 282.051 170.9C274.692 170.9 269.541 129.015 268.069 123C266.892 118.188 259.238 160.876 255.559 170.9C249.182 173.239 235.396 176.514 231.275 170.9Z" fill="#858D7A"/>
<path d="M231.275 170.9C227.154 165.287 229.558 76.3373 231.275 32.5642C239.37 32.5642 256.737 33.5667 261.446 37.5764C266.156 41.5861 258.634 75.3592 254.709 96.7445C257.407 85.3836 264.537 72.6617 268.069 72.6617C271.601 72.6617 276.409 85.3836 278.371 96.7445C282.051 76 276.016 38.9798 278.371 32.5642C281.315 24.5447 303.391 32.5642 310.75 32.5642C316.636 32.5642 313.202 124.788 310.75 170.9C305.925 176 287.937 170.9 282.051 170.9C274.692 170.9 269.541 129.015 268.069 123C266.892 118.188 259.238 160.876 255.559 170.9C249.182 173.239 235.396 176.514 231.275 170.9Z" fill="url(#paint5_linear)"/>
<path d="M325.332 167.911C321.372 165.065 327.313 66.6911 329.293 61C333.254 61 356.522 65.8781 355.532 68.7236C354.542 71.5691 359.988 167.911 360.978 173.195C361.968 178.48 329.293 170.756 325.332 167.911Z" fill="#858D7A"/>
<path d="M325.332 167.911C321.372 165.065 327.313 66.6911 329.293 61C333.254 61 356.522 65.8781 355.532 68.7236C354.542 71.5691 359.988 167.911 360.978 173.195C361.968 178.48 329.293 170.756 325.332 167.911Z" fill="url(#paint6_linear)"/>
<path d="M369.601 94.9229C367.19 90.7076 372.615 51.7153 375.629 32.7461C378.643 28.5307 424.488 39.2846 427 43.5C429.009 46.8723 427.703 65.4153 430.382 77.5345C426.029 77.0076 414.911 75.216 405.266 72.2653C401.408 71.8392 399.61 69.1526 398.927 65.987C395.026 65.933 390.332 65.8205 388.689 68.5768C388.187 77.0076 401.75 79.1153 422.847 82.8037C443.945 86.4922 447.002 161.842 446.5 167.638C445.998 173.434 375.629 178.704 369.601 167.638C373.218 160.472 378.81 122.499 381.154 104.408H405.266C408.883 104.408 406.5 113 406.5 120C409.012 120.176 413.705 120.11 417.322 119.688C421.843 119.161 420 112.5 417.322 104.408C415.17 97.9044 372.615 100.192 369.601 94.9229Z" fill="#858D7A"/>
<path d="M369.601 94.9229C367.19 90.7076 372.615 51.7153 375.629 32.7461C378.643 28.5307 424.488 39.2846 427 43.5C429.009 46.8723 427.703 65.4153 430.382 77.5345C426.029 77.0076 414.911 75.216 405.266 72.2653C401.408 71.8392 399.61 69.1526 398.927 65.987C395.026 65.933 390.332 65.8205 388.689 68.5768C388.187 77.0076 401.75 79.1153 422.847 82.8037C443.945 86.4922 447.002 161.842 446.5 167.638C445.998 173.434 375.629 178.704 369.601 167.638C373.218 160.472 378.81 122.499 381.154 104.408H405.266C408.883 104.408 406.5 113 406.5 120C409.012 120.176 413.705 120.11 417.322 119.688C421.843 119.161 420 112.5 417.322 104.408C415.17 97.9044 372.615 100.192 369.601 94.9229Z" fill="url(#paint7_linear)"/>
<path fill-rule="evenodd" clip-rule="evenodd" d="M444 35.7702C446 79.1575 452.6 166.786 463 170.2C476 174.467 527 189.404 529 179.802C531 170.2 530 131.791 524 130.724C519.019 129.839 496.12 130.423 487.341 130.648C485.545 130.694 484.34 130.724 484 130.724C482 130.724 474 105.119 479 105.119C480.531 105.119 484.219 106.719 488.772 108.696C499.086 113.172 513.837 119.575 518 113.654C524 105.119 522 44.3054 513 35.7702C505.8 28.942 464 32.9251 444 35.7702ZM483.504 63.6148C485.179 58.1335 488.993 47.4698 490.848 48.6658C492.048 49.4389 492.316 53.4112 492.564 57.0666C492.795 60.4788 493.007 63.6148 493.94 63.6148C495.873 63.6148 503.603 66.6047 503.99 70.0928C504.202 72.01 501.145 73.7768 498.348 75.3929C496.057 76.7171 493.94 77.9402 493.94 79.0622C493.94 79.6731 494.126 80.9729 494.361 82.6164C495.085 87.6764 496.274 95.9949 493.94 97.4995C492.264 98.58 489.906 93.6565 487.791 89.2386C486.004 85.5069 484.389 82.136 483.504 83.0487C481.572 85.0419 470.363 96.5029 469.59 93.0147C469.161 91.0798 471.587 85.7713 473.766 81.0023C475.515 77.1742 477.106 73.6937 476.934 72.5843C476.794 71.6823 475.387 69.4739 473.796 66.976C470.993 62.5746 467.617 57.2744 469.59 56.6386C472.682 55.642 480.026 59.6284 483.504 63.6148Z" fill="#858D7A"/>
<path fill-rule="evenodd" clip-rule="evenodd" d="M444 35.7702C446 79.1575 452.6 166.786 463 170.2C476 174.467 527 189.404 529 179.802C531 170.2 530 131.791 524 130.724C519.019 129.839 496.12 130.423 487.341 130.648C485.545 130.694 484.34 130.724 484 130.724C482 130.724 474 105.119 479 105.119C480.531 105.119 484.219 106.719 488.772 108.696C499.086 113.172 513.837 119.575 518 113.654C524 105.119 522 44.3054 513 35.7702C505.8 28.942 464 32.9251 444 35.7702ZM483.504 63.6148C485.179 58.1335 488.993 47.4698 490.848 48.6658C492.048 49.4389 492.316 53.4112 492.564 57.0666C492.795 60.4788 493.007 63.6148 493.94 63.6148C495.873 63.6148 503.603 66.6047 503.99 70.0928C504.202 72.01 501.145 73.7768 498.348 75.3929C496.057 76.7171 493.94 77.9402 493.94 79.0622C493.94 79.6731 494.126 80.9729 494.361 82.6164C495.085 87.6764 496.274 95.9949 493.94 97.4995C492.264 98.58 489.906 93.6565 487.791 89.2386C486.004 85.5069 484.389 82.136 483.504 83.0487C481.572 85.0419 470.363 96.5029 469.59 93.0147C469.161 91.0798 471.587 85.7713 473.766 81.0023C475.515 77.1742 477.106 73.6937 476.934 72.5843C476.794 71.6823 475.387 69.4739 473.796 66.976C470.993 62.5746 467.617 57.2744 469.59 56.6386C472.682 55.642 480.026 59.6284 483.504 63.6148Z" fill="url(#paint8_linear)"/>
</g>
<defs>
<filter id="filter0_d" x="0" y="0" width="534.936" height="187.963" filterUnits="userSpaceOnUse" color-interpolation-filters="sRGB">
<feFlood flood-opacity="0" result="BackgroundImageFix"/>
<feColorMatrix in="SourceAlpha" type="matrix" values="0 0 0 0 0 0 0 0 0 0 0 0 0 0 0 0 0 0 127 0"/>
<feOffset dx="5" dy="5"/>
<feColorMatrix type="matrix" values="0 0 0 0 0.720524 0 0 0 0 0.440495 0 0 0 0 0.440495 0 0 0 0.24 0"/>
<feBlend mode="normal" in2="BackgroundImageFix" result="effect1_dropShadow"/>
<feBlend mode="normal" in="SourceGraphic" in2="effect1_dropShadow" result="shape"/>
</filter>
<linearGradient id="paint0_linear" x1="45.6822" y1="0" x2="45.6822" y2="178.376" gradientUnits="userSpaceOnUse">
<stop stop-color="#6F7863" stop-opacity="0"/>
<stop offset="1" stop-color="#7E977D"/>
</linearGradient>
<linearGradient id="paint1_linear" x1="118.5" y1="61" x2="118.5" y2="175" gradientUnits="userSpaceOnUse">
<stop stop-color="#6F7863" stop-opacity="0"/>
<stop offset="1" stop-color="#7E977D"/>
</linearGradient>
<linearGradient id="paint2_linear" x1="115" y1="8" x2="115" y2="54" gradientUnits="userSpaceOnUse">
<stop stop-color="#6F7863" stop-opacity="0"/>
<stop offset="1" stop-color="#7E977D"/>
</linearGradient>
<linearGradient id="paint3_linear" x1="340" y1="8" x2="340" y2="57" gradientUnits="userSpaceOnUse">
<stop stop-color="#6F7863" stop-opacity="0"/>
<stop offset="1" stop-color="#7E977D"/>
</linearGradient>
<linearGradient id="paint4_linear" x1="182.384" y1="3.05176e-05" x2="182.384" y2="178" gradientUnits="userSpaceOnUse">
<stop stop-color="#6F7863" stop-opacity="0"/>
<stop offset="1" stop-color="#7E977D"/>
</linearGradient>
<linearGradient id="paint5_linear" x1="271.5" y1="29" x2="271.5" y2="174" gradientUnits="userSpaceOnUse">
<stop stop-color="#6F7863" stop-opacity="0"/>
<stop offset="1" stop-color="#7E977D"/>
</linearGradient>
<linearGradient id="paint6_linear" x1="342.5" y1="61" x2="342.5" y2="175" gradientUnits="userSpaceOnUse">
<stop stop-color="#6F7863" stop-opacity="0"/>
<stop offset="1" stop-color="#7E977D"/>
</linearGradient>
<linearGradient id="paint7_linear" x1="407.774" y1="31.7842" x2="407.774" y2="174.109" gradientUnits="userSpaceOnUse">
<stop stop-color="#6F7863" stop-opacity="0"/>
<stop offset="1" stop-color="#7E977D"/>
</linearGradient>
<linearGradient id="paint8_linear" x1="486.968" y1="32" x2="486.968" y2="182.963" gradientUnits="userSpaceOnUse">
<stop stop-color="#6F7863" stop-opacity="0"/>
<stop offset="1" stop-color="#7E977D"/>
</linearGradient>
</defs>
</svg>
